<svg width="1366" height="77" xmlns="http://www.w3.org/2000/svg"><path d="M1366 73c-7.21-.867-17.465-1.475-30.765-1.825-19.95-.524-44.593-23.671-63.37-23.146-18.776.524-26.991-3.184-63.37-14.72C1172.116 21.777 1153.676.097 1150.97.097c-2.707 0-5.234 8.57-39.266 23.252-34.032 14.68-28.776 19.438-42.858 18.39 0 0-7.275-1.24-9.622-1.59-2.347-.35-6.258 1.166-15.645 3.146-9.388 1.98-29.349 17.896-41.082 18.828-11.734.932-41.643 7.937-49.726 7.82-8.084-.116-13.56 2.33-24.251 0s7.888-2.454-45.567.109c-53.455 2.564-91.722-1.904-98.762-2.487-7.04-.582-7.692 1.318-41.069 3.766-33.377 2.446-96.22 1.783-158.214-1.395-61.499-3.152-24.251-3.728-70.143-.7-45.894 3.03-111.344 3.146-125.424 1.98-14.081-1.164-15.385-2.445-30.509-1.513-15.124.932-34.159-1.165-39.635-1.398-5.476-.233-12.516.698-29.466 1.28-16.949.583-35.202 3.03-66.232-1.747-31.03-4.776-35.724-5.358-41.199-6.291-5.476-.931-19.035-2.534-22.164-2.548-3.13-.014-13.949 4.77-17.407 5.839-5.083 1.574-9.517 1.515-12.125 2.448-2.607.93-6.127.524-9.778 1.922-3.65 1.398-24.262-2.272-25.826-1.922-1.043.232-9.377 2.137-25 5.715L0 77h1366v-4z" fill="#FFF" fill-rule="evenodd"/></svg>