<svg width="79" height="24" xmlns="http://www.w3.org/2000/svg"><path d="M2.319 21.215H13.76V2.785H2.32v18.43zM0 23.538V.462h16.088v23.076H0zm26.775-12.723h-.996c-1.307-1.848-2.603-3.685-3.898-5.761h-.01v5.761h-1.1V2.782h.996c1.307 1.836 2.602 3.66 3.885 5.725h.023V2.782h1.1v8.033zm3.14-8.033h1.147l2.558 8.033h-1.537l-.63-2.192h-2.42l-.698 2.192h-1.192l2.772-8.033zm-.525 4.854h1.856c-.298-1.056-.585-2.032-.906-3.271h-.023c-.287 1.24-.608 2.215-.927 3.27zm5.524 3.18V3.86h-2.11V2.782h5.593V3.86H36.29v6.955h-1.375zm3.93 0V2.781h1.366v8.033h-1.366zm5.607.135c-2.1 0-3.408-1.869-3.408-4.269 0-2.248 1.449-4.039 3.408-4.039 1.96 0 3.403 1.79 3.403 4.04 0 2.399-1.306 4.268-3.403 4.268zm0-1.147c1.431 0 1.934-1.584 1.934-3.122 0-1.48-.57-2.891-1.934-2.891-1.366 0-1.939 1.412-1.939 2.891 0 1.538.504 3.122 1.939 3.122zm10.246 1.011H53.7c-1.308-1.848-2.603-3.685-3.897-5.761h-.012v5.761h-1.098V2.782h.996c1.306 1.836 2.602 3.66 3.882 5.725h.025V2.782h1.1v8.033zm3.142-8.033h1.146l2.556 8.033h-1.535l-.632-2.192h-2.419l-.697 2.192h-1.193l2.774-8.033zm-.529 4.854h1.857c-.298-1.056-.583-2.032-.904-3.271h-.023c-.289 1.24-.608 2.215-.93 3.27zm4.63-4.854h1.367v6.954h2.715v1.08H61.94V2.781zM25.93 17.534v3.316c-.734.287-1.502.493-2.28.493-2.362 0-3.851-1.836-3.851-4.2 0-2.193 1.49-4.109 3.896-4.109.744 0 1.49.278 1.948.62l-.447.953a2.998 2.998 0 0 0-1.467-.423c-1.466 0-2.464 1.159-2.464 2.984 0 1.903 1.147 3.027 2.327 3.027.366 0 .676-.043.964-.194v-2.467h1.374zm4.92-3.28h-2.295v2.201H30.8v1.08h-2.246v2.591h2.705v1.08h-4.082v-8.033h3.672v1.08zm4.24 7.09c-2.1 0-3.405-1.87-3.405-4.27 0-2.248 1.443-4.04 3.406-4.04 1.959 0 3.402 1.792 3.402 4.04 0 2.4-1.306 4.27-3.402 4.27zm0-1.149c1.43 0 1.935-1.582 1.935-3.121 0-1.478-.572-2.89-1.934-2.89-1.367 0-1.94 1.412-1.94 2.89 0 1.54.505 3.121 1.94 3.121zm10.004-2.66v3.315c-.735.287-1.5.493-2.28.493-2.361 0-3.852-1.836-3.852-4.2 0-2.193 1.49-4.109 3.898-4.109.746 0 1.49.278 1.947.62l-.448.953a2.979 2.979 0 0 0-1.464-.423c-1.469 0-2.466 1.159-2.466 2.984 0 1.903 1.147 3.027 2.327 3.027.369 0 .676-.043.964-.194v-2.467h1.374zm6.123 3.671h-1.572l-1.293-3.03h-.618v3.03h-1.379v-8.033h2.143c1.537 0 2.49.756 2.49 2.318 0 .964-.508 1.92-1.39 2.388l1.62 3.327zm-3.483-6.953v2.925c.111-.01.433-.021.57-.035.655-.035 1.307-.516 1.307-1.594 0-.827-.46-1.296-1.271-1.296h-.606zm6.279-1.08h1.146l2.557 8.033h-1.539l-.627-2.193h-2.42l-.7 2.193h-1.192l2.775-8.033zm-.527 4.854h1.857c-.299-1.057-.585-2.031-.906-3.27h-.022c-.289 1.239-.61 2.213-.929 3.27zm6.615-.884c.654-.035 1.305-.516 1.305-1.594 0-.827-.46-1.296-1.262-1.296h-.618v2.923c.095-.01.432-.02.575-.033zm.193-3.97c1.536 0 2.488.756 2.488 2.318 0 1.354-.998 2.686-2.638 2.686h-.618v3.03H58.15v-8.034h2.144zm8.86 8.033h-1.375V17.34h-2.856v3.866h-1.36v-8.033h1.36v3.087h2.856v-3.064h1.375v8.01zm1.317 0v-8.033h1.367v8.033H70.47zm7.554-6.574c-.333-.208-.88-.448-1.41-.448-1.4 0-2.417 1.159-2.417 2.984 0 1.903 1.122 3.027 2.452 3.027.528 0 1.02-.173 1.375-.402l.38 1c-.415.286-1.147.55-1.81.55-2.363 0-3.854-1.836-3.854-4.2 0-2.193 1.479-4.109 3.874-4.109.712 0 1.375.3 1.848.62l-.438.978z" fill="#1B2B3A" fill-rule="evenodd" opacity=".5"/></svg>