<svg width="62" height="30" xmlns="http://www.w3.org/2000/svg"><path d="M62 17.808c0 .378-1.622.999-2.631.378-1.01-.62-.995-1.499-.995-2.498H53.86c.505 1.241 2.005 1.12 2.51.5l1.882.378c-.627 2.12-2.51 2.484-4.253 1.863-1.01-.5-1.5-1-1.883-1.863v2.12H49.99v-4.104c-.122-.878-1.5-.878-1.5 0v3.968h-3.626V17.31c0-.5-.504 1.241-1.254 1.241-1.5.121-2.753-.62-3.381-1.984v1.984h-2.25v-1.999c-.626 1.363-2.248 2.12-3.886 1.742l-.244-.12s.122 2.24.122 2.862h-2.249v-5.846c0-2.741 3.015-4.361 5.263-2.741.383.378.75.878 1.01 1.363V9.208h2.249v4.603c.749-1.363 2.126-2.12 3.763-1.863 1.132.242 1.882.878 2.387 1.984.627-1.742 2.249-2.484 4.131-1.863.873.379 1.254 1 1.622 1.863.75-1.742 2.509-2.484 4.391-1.863.873.5 1.5 1 1.882 1.863v-3.483h2.127v1.363h1.377v1.984h-1.377c0 .741-.122 1.363.122 1.984.122.378.75.5 1.254.12L62 17.81v-.001zm-25.566-2.62c0-.741-.627-1.363-1.377-1.363s-1.378.62-1.378 1.363.627 1.363 1.378 1.363c.75 0 1.377-.62 1.377-1.363zm8.155 0c0-.741-.627-1.363-1.378-1.363-.749 0-1.377.62-1.377 1.363s.627 1.363 1.377 1.363 1.378-.62 1.378-1.363zm11.903-.5c-.383-1.363-2.249-1.24-2.632 0h2.632zM18.64 10.706l-1.5-.62C19.268 4.24 24.79 0 31.309 0c6.518 0 12.027 4.225 14.031 10.085l-1.5.485C42.08 5.346 37.078 1.74 31.31 1.74c-5.77 0-10.787 3.74-12.669 8.965zm-1.254 7.722c-1.132-.242-1.882-.878-2.387-1.984v2.12h-2.127v-3.997c-.122-.879-1.377-.879-1.5 0v3.982H9.247v-2.24c-.505 1.363-1.5 1.983-3.014 2.12-1.5 0-2.51-.742-3.136-1.985v2.12H.846V9.236h2.249v4.603c.505-1 1.132-1.5 2.126-1.863 1.76-.379 3.259.379 4.01 1.984.504-1.363 1.499-2.12 3.013-2.12 1.378.121 2.387.742 2.754 2.12.383-1 1.254-1.742 2.51-1.984 1.76-.242 3.013.5 3.763 1.984V9.235h2.248v2.62h2.127v4.073c0 .741 1.132.741 1.132 0v-4.104h2.126v7.102c0 .742-.244 1.241-.749 1.863-.627.62-1.254.742-2.126.878-1.132.121-1.883-.241-2.754-.878l1.254-1.62c.627.5 1.622.5 2.004-.242.123-.242.123-.62.123-1-1.132 1.121-2.877.621-3.259-.878v1.5h-2.249v-2.863h-4.391c.244 1 1.377 1.363 2.249.62l1.882.242c.015.5-.995 2.12-3.504 1.878l.002.002zm-10.022-3.24c0-.741-.627-1.363-1.377-1.363s-1.377.62-1.377 1.363.627 1.363 1.377 1.363c.872 0 1.5-.62 1.377-1.363zm9.272-.379h2.753c-.367-1.363-2.248-1.363-2.753 0zm27.187 4.74l1.5.62c-2.004 5.724-7.513 9.95-14.03 9.828-6.519 0-12.027-4.103-14.031-9.828l1.5-.484c1.76 5.103 6.762 8.706 12.53 8.706 5.77 0 10.787-3.618 12.531-8.843z" fill="#1B2B3A" opacity=".5"/></svg>