<svg width="81" height="24" xmlns="http://www.w3.org/2000/svg"><path d="M43.838 15.375c0 2.507-3.112 2.359-3.112 2.359h-3.113v-4.532h3.113c3.205-.018 3.112 2.173 3.112 2.173zm-6.225-9.082h2.372c2.464.13 2.371 1.969 2.371 1.969 0 2.284-2.723 2.321-2.723 2.321h-2.02v-4.29zm5.651 5.182s2.13-.91 2.112-3.325c0 0 .324-3.955-4.905-4.438h-5.803v16.585h6.65s5.559.018 5.559-4.68c0 0 .13-3.195-3.613-4.142zM28.247.462h24.429v23.076H28.247V.462zM15.668 15.375c0 2.507-3.112 2.359-3.112 2.359H9.443v-4.532h3.113c3.205-.018 3.112 2.173 3.112 2.173zM9.443 6.293h2.372c2.464.13 2.37 1.969 2.37 1.969 0 2.284-2.723 2.321-2.723 2.321H9.443v-4.29zm5.65 5.182s2.131-.91 2.113-3.325c0 0 .324-3.955-4.905-4.438H6.497v16.585h6.651s5.559.018 5.559-4.68c0 0 .13-3.195-3.613-4.142zM.078.462h24.428v23.076H.077V.462zM75.862 4.9c-2.705-1.132-4.576-1.318-4.576-1.318-3.13-.297-4.872.371-4.872.371C59.892 5.96 60.096 12 60.096 12c.185 5.874 5.076 7.666 5.076 7.666 5.818 2.303 10.839-.687 10.839-.687v-3.176c-3.743 2.395-6.503 2.061-6.503 2.061C62.93 17.548 63.153 12 63.153 12c.278-6.031 6.429-5.911 6.429-5.911 3.297.037 6.28 1.876 6.28 1.876V4.9zM56.418 23.538V.462h24.428v23.076H56.418z" fill="#1B2B3A" opacity=".5"/></svg>