<svg width="52" height="24" xmlns="http://www.w3.org/2000/svg"><path d="M4.31 12.007c0-4.233 3.52-7.676 7.847-7.676h3.763v2.826h-3.732c-2.738 0-4.957 2.171-4.957 4.85s2.22 4.85 4.957 4.85h4.456c.461 0 .779-.36.777-.773V4.742c0-2.363 1.96-4.28 4.375-4.28 1.542 0 2.991.807 3.755 2.085.17.283 5.404 9.098 5.404 9.098V4.742c0-2.363 1.96-4.28 4.375-4.28 1.542 0 2.991.807 3.756 2.085l5.404 9.098V.562h2.888V19.18c0 .37-.306.67-.684.67a.69.69 0 0 1-.585-.322l-4.6-7.764-4.6-7.767a1.65 1.65 0 0 0-1.417-.79c-.909 0-1.647.724-1.647 1.613v14.36c0 .37-.308.67-.685.67a.69.69 0 0 1-.585-.322 124636.953 124636.953 0 0 1-9.207-15.531 1.651 1.651 0 0 0-1.417-.79c-.908 0-1.647.724-1.647 1.613v14.067c0 .369-.357.797-.817.797h-7.33c-4.326 0-7.846-3.444-7.846-7.677zM48.343.562h2.889v18.696c0 2.363-1.96 4.28-4.375 4.28-1.542 0-2.991-.807-3.755-2.085-.17-.283-5.404-9.098-5.404-9.098v6.903c0 2.363-1.96 4.28-4.375 4.28-1.542 0-2.991-.807-3.755-2.085-.133-.22-5.405-9.098-5.405-9.098v6.529c.004 2.963-1.798 4.57-4.602 4.569h-7.4C5.7 23.453.463 18.328.463 12.007S5.7.562 12.16.562h3.76v2.826h-3.764c-4.857 0-8.81 3.867-8.81 8.62 0 4.752 3.953 8.618 8.81 8.618h7.33c.948 0 1.78-.813 1.78-1.739V4.82c0-.37.307-.67.684-.67a.69.69 0 0 1 .585.323l4.603 7.763 4.605 7.767c.291.487.834.79 1.416.79.909 0 1.648-.724 1.648-1.613V4.82c0-.37.306-.67.684-.67a.69.69 0 0 1 .585.323l4.6 7.763 4.6 7.767c.292.487.835.79 1.417.79.909 0 1.648-.724 1.648-1.613V.562z" fill="#1B2B3A" opacity=".5"/></svg>