<svg xmlns="http://www.w3.org/2000/svg" width="190" height="65" viewBox="0 0 190 65">
    <g fill="none" fill-rule="evenodd">
        <path fill="#4594B3" d="M0 37.318S15.73 25.06 21.76 25.456c6.03.396 8.83-3.282 11.583-5.918 2.752-2.636 21.232-12.534 22.936-17.806 1.704-5.271 17.831 2.913 22.419 5.68 4.588 2.768 19.79 10.839 25.558 11.63 5.767.79 7.556-3.668 11.71-5.8 4.194-2.152 8.477-6.414 9.395-7.336.917-.923 20.583 15.609 37.886 23.386 17.304 7.775 26.564 8.729 26.564 8.729s-41.685-.044-48.502-.176 27.265 2.46 32.771 2.197c-9.525 3.251-12.846 3.163-12.846 3.163l-30.937 1.142 21.94 1.946-13.113 6.05-16.08 1.054 11.973 1.582s-6.38 3.075-10.312 4.657c-7.253-4.832-7.779-5.184-17.522-10.654-9.831 3.23-9.831 2.966-38.582 1.868 10.727 2.416 20.54 3.527 20.54 3.527S71.047 61.92 59.25 64.293c-4.282-3.25-9.962-7.029-9.962-7.029l15.992-1.846-23.858-1.933-14.506-7.731 15.03-1.583-38.189-4.569 43.17-1.23L0 37.319zM183 35a4 4 0 1 1 0-8 4 4 0 0 1 0 8zm0-.812a3.188 3.188 0 1 0 0-6.376 3.188 3.188 0 0 0 0 6.376zm-.22-3.513c.224 0 .386-.045.484-.13.097-.081.15-.22.15-.414 0-.19-.053-.325-.15-.41-.098-.081-.26-.122-.483-.122h-.455v1.076h.455zm-.454.743v1.584h-1.08v-4.187h1.648c.553 0 .955.094 1.21.28.26.183.386.476.386.878 0 .276-.065.503-.199.682-.134.174-.333.308-.605.39.15.036.28.113.398.231.118.118.236.297.354.54l.588 1.186h-1.149l-.512-1.04c-.101-.207-.207-.353-.312-.426a.703.703 0 0 0-.423-.118h-.304z"/>
        <path fill="#FFF" d="M33.786 20.715c2.033-2.34 15.469-10.017 19.085-13.404 4.511-3.598 4.402-6.168 6.018-6.432.61-.1 8.15 1.427 17.893 6.656 7.484 4.015 11.482 6.953 22.842 11.17-1.486 1.054-22.983-8.538-24.906-8.89-1.923-.35-1.923 5.844-2.447 5.888-.656.088-5.831-5.031-7.254-4.174-1.31.791-5.364 11.261-6.773 11.38-1.048.086-6.815-8.568-8.388-9.271-.91-.407-14.602 7.357-16.07 7.077zm75.538-.926s5.627-5.12 6.904-5.58c1.945-.7 8.532-5.686 9.263-7.03.149-.271 6.956 4.194 13.786 9.186 6.883 5.03 15.031 9.223 15.992 9.75 1.923 1.054-24.97-10.851-30.739-11.29-5.767-.44-8.215.966-8.215.966s11.361 4.13 10.924 4.744c-.436.615-18.952.143-17.915-.746zm-61.847 4.327v9.542h1.33c1.309 0 2.258-.15 2.848-.452.59-.302 1.072-.81 1.447-1.524.374-.713.562-1.592.562-2.635 0-1.606-.447-2.851-1.34-3.737-.804-.796-2.096-1.194-3.876-1.194h-.971zm-2.843-2.776h3.392c2.187 0 3.812.273 4.874.817 1.064.545 1.938 1.432 2.626 2.659.688 1.225 1.032 2.658 1.032 4.298 0 1.164-.192 2.235-.577 3.213-.384.978-.916 1.787-1.594 2.432-.679.644-1.412 1.09-2.202 1.337-.79.246-2.16.37-4.107.37h-3.444V21.34zm14.041 15.126V25.278h2.792v11.188h-2.792zm12.14-9.625l-1.729 1.737c-.702-.698-1.34-1.048-1.912-1.048-.313 0-.56.067-.736.2-.177.134-.267.3-.267.499 0 .15.057.29.17.417.113.127.39.3.833.519l1.023.514c1.078.535 1.816 1.08 2.218 1.634.404.557.605 1.208.605 1.956 0 .994-.363 1.823-1.09 2.487-.725.665-1.698.997-2.919.997-1.624 0-2.918-.636-3.887-1.913l1.72-1.881c.325.384.709.694 1.149.931.439.235.83.354 1.171.354.368 0 .665-.088.89-.266.225-.18.337-.384.337-.617 0-.432-.405-.854-1.217-1.266l-.941-.474c-1.8-.91-2.7-2.052-2.7-3.422 0-.886.339-1.641 1.018-2.268.678-.627 1.546-.941 2.602-.941a4.51 4.51 0 0 1 3.662 1.85zm13.296.699l-2.325 1.286c-.436-.46-.868-.779-1.295-.957-.427-.178-.928-.267-1.5-.267-1.045 0-1.89.314-2.536.939-.644.626-.967 1.43-.967 2.407 0 .952.311 1.73.933 2.332.62.603 1.436.902 2.447.902 1.25 0 2.221-.428 2.918-1.284l2.202 1.514c-1.194 1.562-2.879 2.341-5.052 2.341-1.957 0-3.49-.582-4.598-1.747-1.108-1.165-1.661-2.53-1.661-4.094 0-1.082.268-2.08.807-2.992a5.719 5.719 0 0 1 2.256-2.149c.964-.52 2.044-.781 3.236-.781 1.105 0 2.096.22 2.977.663a5.667 5.667 0 0 1 2.158 1.887zm7.787.093c-.867 0-1.59.303-2.167.909-.576.607-.866 1.385-.866 2.33 0 .973.286 1.76.856 2.366.57.603 1.293.904 2.167.904.874 0 1.603-.306 2.182-.915.58-.61.87-1.395.87-2.355s-.285-1.74-.855-2.34c-.57-.6-1.3-.9-2.187-.9zm-.046-2.643a5.87 5.87 0 0 1 2.96.793 5.692 5.692 0 0 1 2.163 2.148c.52.905.778 1.882.778 2.93a5.92 5.92 0 0 1-.78 2.962 5.69 5.69 0 0 1-2.135 2.155c-.9.518-1.892.775-2.976.775-1.594 0-2.957-.57-4.086-1.71-1.128-1.142-1.692-2.529-1.692-4.16 0-1.749.638-3.206 1.912-4.372 1.12-1.014 2.404-1.521 3.856-1.521zm6.99.288h2.845l2.81 6.602 2.805-6.602h2.831l-4.735 11.188h-1.81l-4.746-11.188zm21.277 4.195a2.812 2.812 0 0 0-1.091-1.522c-.542-.39-1.172-.586-1.89-.586-.778 0-1.46.22-2.049.658-.368.275-.71.757-1.024 1.45h6.054zm2.792 2.21h-8.968c.13.796.475 1.43 1.037 1.899.562.469 1.279.703 2.153.703a3.71 3.71 0 0 0 2.69-1.099l2.351 1.11c-.585.836-1.287 1.456-2.105 1.855-.82.402-1.79.602-2.915.602-1.746 0-3.167-.554-4.265-1.66-1.098-1.108-1.647-2.494-1.647-4.159 0-1.707.548-3.124 1.642-4.253 1.093-1.128 2.466-1.691 4.115-1.691 1.754 0 3.178.563 4.277 1.691 1.097 1.129 1.646 2.618 1.646 4.468l-.01.535zm1.606-6.405h2.392v1.408c.26-.554.605-.977 1.036-1.264a2.48 2.48 0 0 1 1.41-.432c.361 0 .74.097 1.135.288l-.87 2.417c-.326-.166-.596-.248-.807-.248-.43 0-.794.268-1.09.803-.297.535-.444 1.583-.444 3.146l.01.545v4.525h-2.772V25.278zm6.119 0h2.854l2.89 7.02 3.188-7.02h2.861l-6.968 15.28h-2.883l2.287-4.928-4.23-10.352zM44.72 38.503h1.457l1.124 4.991 1.388-4.99h1.232l1.408 4.99 1.113-4.99H53.9l-1.753 7.818h-1.42l-1.433-5.056-1.406 5.056h-1.406l-1.76-7.819zm13.441 3.254c-.447 0-.821.155-1.119.468-.299.314-.448.717-.448 1.205 0 .504.147.912.442 1.222.295.312.668.47 1.12.47.452 0 .829-.16 1.129-.475.3-.315.45-.72.45-1.217 0-.497-.148-.899-.442-1.209-.295-.31-.673-.464-1.132-.464zm-.023-1.367c.542 0 1.053.136 1.53.408.479.273.85.645 1.118 1.112a3 3 0 0 1 .403 1.515c0 .547-.136 1.056-.406 1.531-.27.475-.636.846-1.1 1.113-.467.268-.98.401-1.54.401-.824 0-1.53-.294-2.112-.884a2.946 2.946 0 0 1-.876-2.15c0-.903.33-1.657.989-2.26.579-.524 1.243-.786 1.994-.786zm4.432.149h1.238v.727c.133-.286.311-.505.533-.653.222-.149.466-.223.73-.223.187 0 .382.05.586.149l-.448 1.247c-.17-.084-.31-.126-.418-.126-.223 0-.41.138-.563.414-.153.277-.23.819-.23 1.627l.004.283v2.338h-1.432v-5.783zm4.184 5.783v-8.016h1.443v8.016h-1.443zm6.024-4.593a1.45 1.45 0 0 0-1.112.477c-.294.317-.443.722-.443 1.219 0 .5.151.91.452 1.234.3.32.669.482 1.108.482.453 0 .83-.159 1.128-.475.299-.317.447-.732.447-1.247 0-.502-.148-.91-.447-1.221-.299-.314-.676-.469-1.133-.469zm1.517-3.424h1.443v8.017h-1.443v-.612a2.81 2.81 0 0 1-.848.583c-.283.118-.59.177-.92.177-.744 0-1.386-.29-1.929-.869-.541-.58-.812-1.298-.812-2.161 0-.892.262-1.625.786-2.194.524-.57 1.162-.857 1.912-.857.345 0 .67.065.971.197a2.7 2.7 0 0 1 .84.589v-2.87zm6.406.198H85v1.468h-1.416v6.35h-1.501v-6.35h-1.38v-1.468zm5.358 2.036h1.237v.727c.134-.286.312-.505.534-.653.222-.149.466-.223.73-.223.187 0 .382.05.587.149l-.45 1.247c-.169-.084-.308-.126-.417-.126-.223 0-.41.138-.563.414-.154.277-.23.819-.23 1.627l.005.283v2.338H86.06v-5.783zm8.661 2.169a1.462 1.462 0 0 0-.563-.789c-.28-.2-.606-.301-.976-.301-.404 0-.756.113-1.06.34-.19.141-.367.392-.53.75h3.13zm1.444 1.141h-4.637c.067.411.247.74.538.982.291.242.66.364 1.112.364.54 0 1.003-.188 1.391-.569l1.216.574a2.87 2.87 0 0 1-1.09.96c-.422.207-.924.31-1.506.31-.902 0-1.637-.285-2.205-.858-.566-.572-.85-1.289-.85-2.15 0-.882.282-1.615.848-2.197.566-.583 1.274-.876 2.127-.876.906 0 1.642.293 2.21.876.568.582.851 1.352.851 2.309l-.005.275zm1.72-5.543h1.445v4.616l2.124-2.383h1.813l-2.478 2.772 2.774 3.011h-1.79l-2.443-2.665v2.665h-1.444v-8.016zm6.824 0h1.441v4.616l2.127-2.383h1.812l-2.478 2.772 2.775 3.011h-1.792l-2.444-2.665v2.665h-1.441v-8.016zm6.652 8.016V40.54h1.443v5.783h-1.443zm3.295-5.783h1.445v.593c.326-.278.623-.471.89-.58.264-.108.536-.162.814-.162.57 0 1.054.198 1.452.6.335.341.501.845.501 1.51v3.822h-1.427v-2.533c0-.69-.03-1.148-.093-1.374a.954.954 0 0 0-.32-.52.906.906 0 0 0-.568-.176c-.292 0-.543.098-.75.293-.211.198-.356.47-.437.817-.042.18-.062.57-.062 1.172v2.32h-1.445V40.54zm9.794 1.207c-.455 0-.83.152-1.126.46-.297.306-.444.691-.444 1.156 0 .48.151.876.454 1.185.303.308.684.463 1.142.463.449 0 .817-.152 1.107-.454.292-.3.436-.696.436-1.185 0-.481-.146-.872-.438-1.174-.293-.301-.67-.45-1.131-.45zm1.495-1.207h1.438v4.954c0 .977-.195 1.697-.586 2.159-.525.622-1.316.935-2.373.935-.565 0-1.04-.071-1.423-.213a2.573 2.573 0 0 1-.972-.624 2.54 2.54 0 0 1-.586-1.001h1.59c.141.16.322.285.544.368.222.083.486.125.789.125.387 0 .7-.06.934-.181.237-.12.404-.277.5-.468.098-.19.145-.52.145-.989a2.38 2.38 0 0 1-.798.55 2.51 2.51 0 0 1-.947.167 2.594 2.594 0 0 1-1.955-.839c-.532-.56-.798-1.267-.798-2.126 0-.917.282-1.655.846-2.212a2.511 2.511 0 0 1 1.83-.754c.33 0 .644.062.936.182.296.124.59.324.886.603v-.636z"/>
    </g>
</svg>
